<?xml version="1.0" encoding="UTF-8" standalone="no"?>
<!-- Created with Inkscape (http://www.inkscape.org/) -->

<svg
   width="29.476061mm"
   height="42.848915mm"
   viewBox="0 0 29.476061 42.848915"
   version="1.1"
   id="svg19972"
   inkscape:version="1.1.1 (3bf5ae0d25, 2021-09-20)"
   sodipodi:docname="dancing_wizard_flat.svg"
   inkscape:export-filename="/home/qqwy/Desktop/dancing_wizard.png"
   inkscape:export-xdpi="899.84003"
   inkscape:export-ydpi="899.84003"
   xmlns:inkscape="http://www.inkscape.org/namespaces/inkscape"
   xmlns:sodipodi="http://sodipodi.sourceforge.net/DTD/sodipodi-0.dtd"
   xmlns="http://www.w3.org/2000/svg"
   xmlns:svg="http://www.w3.org/2000/svg">
  <sodipodi:namedview
     id="namedview19974"
     pagecolor="#ffffff"
     bordercolor="#666666"
     borderopacity="1.0"
     inkscape:pageshadow="2"
     inkscape:pageopacity="0.0"
     inkscape:pagecheckerboard="0"
     inkscape:document-units="mm"
     showgrid="false"
     fit-margin-top="0"
     fit-margin-left="0"
     fit-margin-right="0"
     fit-margin-bottom="0"
     inkscape:zoom="2.3090909"
     inkscape:cx="63.444882"
     inkscape:cy="74.704724"
     inkscape:window-width="1920"
     inkscape:window-height="1021"
     inkscape:window-x="0"
     inkscape:window-y="0"
     inkscape:window-maximized="1"
     inkscape:current-layer="layer1" />
  <defs
     id="defs19969" />
  <g
     inkscape:label="Layer 1"
     inkscape:groupmode="layer"
     id="layer1"
     transform="translate(-71.886969,-84.908876)">
    <g
       id="g19878"
       transform="translate(-11.514592,-99.76025)">
      <g
         id="g4587"
         transform="translate(-36.285889)"
         style="opacity:1">
        <path
           style="fill:#000000;fill-opacity:0.997455;stroke:none;stroke-width:0.264583px;stroke-linecap:butt;stroke-linejoin:miter;stroke-opacity:1"
           d="m 132.63232,227.51804 3.96875,-0.28773 -3.70336,-12.96457 c 0,0 2.46232,-0.27113 3.64755,0 0.59324,0.13571 1.3206,0.2783 1.64412,0.79375 0.28131,0.4482 0.18756,1.09269 0,1.5875 -0.56591,1.49295 -3.175,3.58633 -3.175,3.58633 l 2.34921,1.44074 c 0,0 5.15573,-3.35949 5.07286,-5.96944 -0.0492,-1.54976 -3.231,-3.34637 -3.231,-3.34637 l -0.29004,-1.7873 c 3.80512,-1.59316 7.81111,-5.30751 9.39158,-9.46043 1.31253,-3.44888 1.12035,-7.79089 -0.6026,-11.05416 -0.51609,-0.97748 -1.58292,-1.66969 -2.63244,-2.01657 -0.67131,-0.22188 -1.61917,-0.46582 -2.12084,0.0324 -0.37549,0.37291 -0.29477,1.12605 -0.0352,1.58723 0.60595,1.07661 2.59235,0.78247 3.21019,1.8523 0.35281,0.61092 0.49882,1.6176 -4e-5,2.11645 -0.18709,0.18709 -0.60666,0.18709 -0.79375,0 -0.37418,-0.37418 0.37418,-1.21332 0,-1.5875 -0.37418,-0.37418 -1.24043,-0.39945 -1.5875,0 -1.06648,1.22744 0.68125,4.8303 0.68125,4.8303 0,0 0.62771,3.21657 0.1125,4.6947 -0.45343,1.3009 -2.64583,3.17508 -2.64583,3.17508 l -1.14982,-0.13233 c 0,0 1.21508,-2.58032 1.45624,-3.96867 0.30943,-1.78139 0.65655,-3.75628 -0.0418,-5.42404 -0.57808,-1.38055 -1.75426,-2.7041 -3.17496,-3.17497 -3.46893,-1.14972 -7.81065,-0.44471 -10.84792,1.58761 -0.98085,0.65631 -1.51124,1.90106 -1.81031,3.04271 -0.46389,1.7708 -0.34176,3.72223 0.13342,5.49004 0.25448,0.94674 1.41227,2.57976 1.41227,2.57976 0,0 -2.98328,-2.07935 -3.649,-3.67112 -0.71889,-1.71892 -0.0551,-5.58931 -0.0551,-5.58931 l 0.52912,-3.43956 c 0,0 -0.85068,-0.50051 -1.39768,-0.0397 -0.40953,0.34503 -0.47832,1.72293 -0.82367,1.55549 -0.6944,-0.33666 -0.5003,-1.61702 -0.1599,-2.30959 0.42079,-0.85613 1.70894,-0.90017 2.38119,-1.58749 0.28202,-0.28834 0.0984,-0.99766 -0.59018,-1.05628 -0.37099,-0.0316 -0.74,-0.021 -0.99721,0.0862 -1.37877,0.57491 -2.39343,2.00628 -2.91046,3.40778 -0.90269,2.44689 -0.41323,5.24912 0,7.82426 0.26797,1.66992 0.60456,3.44279 1.5875,4.81912 1.27265,1.782 5.23505,3.96875 5.23505,3.96875 l 1.9087,1.32296 c 0,0 0.22707,3.42791 0.52917,5.11527 0.75024,4.19047 3.17494,12.37035 3.17494,12.37035 z"
           id="path3094"
           sodipodi:nodetypes="cccaaaccaccaaaaaaaaaacaccaaaaaacaccssasssaaaccacc" />
        <ellipse
           style="fill:#ffffff;fill-opacity:0.985384;stroke:none;stroke-width:1.49578;stroke-linecap:round;stroke-linejoin:round"
           id="path4348"
           cx="130.69525"
           cy="198.2851"
           rx="2.6638184"
           ry="1.67559" />
        <ellipse
           style="opacity:1;fill:#000000;fill-opacity:0.970554;stroke:none;stroke-width:1.66797;stroke-linecap:round;stroke-linejoin:round"
           id="ellipse12093"
           cx="130.71512"
           cy="198.39252"
           rx="0.88266742"
           ry="0.88271415" />
        <ellipse
           style="fill:#ffffff;fill-opacity:0.998032;stroke:none;stroke-width:1.49578;stroke-linecap:round;stroke-linejoin:round"
           id="ellipse4430"
           cx="137.8804"
           cy="198.2851"
           rx="2.6638184"
           ry="1.67559" />
        <ellipse
           style="fill:#000000;fill-opacity:0.970554;stroke:none;stroke-width:1.66797;stroke-linecap:round;stroke-linejoin:round"
           id="ellipse4711"
           cx="138.15356"
           cy="198.3889"
           rx="0.88266742"
           ry="0.88271415" />
      </g>
      <g
         id="g10854"
         style="opacity:1">
        <g
           id="g10849">
          <path
             style="opacity:1;fill:#16c62b;fill-opacity:1;stroke:#000000;stroke-width:1;stroke-linecap:round;stroke-linejoin:round;stroke-miterlimit:4;stroke-dasharray:none;stroke-opacity:1;paint-order:fill markers stroke"
             d="m 90.826721,192.55504 c 0,0 0.624734,1.53778 1.302282,1.89757 1.784453,0.94758 4.084304,0.45962 6.061175,0.0423 1.993382,-0.42081 4.237692,-0.97071 5.573052,-2.50937 0.68179,-0.78559 0.83925,-2.76862 0.86789,-2.99743 0.0286,-0.22881 -0.3415,-0.97288 -0.48177,-1.08449 -0.14026,-0.11162 -1.81059,2.36795 -1.81059,2.36795 0,0 -1.30414,0.26876 -1.77396,-0.0916 -0.683391,-0.52417 -0.33483,-1.73121 -0.797509,-2.45764 -0.517007,-0.81173 -1.267225,-1.50743 -2.111875,-1.96869 -0.682927,-0.37295 -1.48624,-0.63447 -2.262172,-0.57609 -1.185026,0.0891 -2.314676,0.69981 -3.284326,1.38684 -0.334055,0.23669 -0.582501,0.57988 -0.825886,0.90909 -0.208827,0.28247 -0.420573,0.57509 -0.537974,0.90617 -0.131815,0.37173 -0.257916,0.78576 -0.171876,1.17067 0.08863,0.39648 0.673637,1.0157 0.673637,1.0157 l 0.351618,1.44786 0.554397,-1.6268 c 0,0 0.46995,-0.44621 0.632635,-0.72165 0.164114,-0.27786 0.329461,-0.91034 0.329461,-0.91034 l -0.893837,-0.11345 c 0,0 1.156589,-0.36074 1.609467,-0.0721 0.420342,0.26788 0.479152,0.89229 0.570211,1.38235 0.0724,0.38964 0.07118,0.80497 -0.02829,1.1886 -0.09766,0.37663 -0.25124,0.77572 -0.542769,1.0334 -0.207449,0.18337 -0.504828,0.24338 -0.777213,0.29302 -0.369911,0.0674 -1.128011,0 -1.128011,0 z"
             id="path5541"
             sodipodi:nodetypes="caaasscaaaaaaaacccaccaaaaacc" />
          <path
             style="color:#000000;opacity:0.440024;fill:#418e60;fill-opacity:1;-inkscape-stroke:none"
             d="m 100.42863,189.66131 c 0.057,-0.33205 -0.20829,-0.74659 -0.471962,-0.57326 -0.620171,0.48065 -1.358897,2.00213 -2.088017,2.30411 -0.99426,0.24249 -2.563819,-2.06368 -3.582124,-2.1496 -0.175185,-0.009 0.09971,1.4263 0.173309,1.20218 -0.319169,-0.001 -0.335868,1.00411 -0.541377,1.30693 -0.231004,0.3032 -0.405351,0.70385 -0.0436,0.76599 0.785433,0.20131 1.659709,0.13736 2.465039,0.10329 0.677709,-0.052 1.368116,-0.11326 2.0144,-0.33579 0.884349,-0.35441 2.490862,-0.86891 3.240602,-1.43973 0.1313,-0.0854 -0.87473,-0.11704 -0.5146,-0.38069 0.18177,-0.22574 -0.1554,-0.35904 -0.41171,-0.49493 -0.0671,-0.0796 -0.27894,-0.0813 -0.26284,-0.17516 z"
             id="path9984"
             sodipodi:nodetypes="scccccccccccss" />
          <path
             style="opacity:1;fill:none;fill-opacity:1;stroke:#000000;stroke-width:1;stroke-linecap:round;stroke-linejoin:round;stroke-miterlimit:4;stroke-dasharray:none;stroke-opacity:1;paint-order:fill markers stroke"
             d="m 90.826721,192.55504 c 0,0 0.624734,1.53778 1.302282,1.89757 1.784453,0.94758 4.084304,0.45962 6.061175,0.0423 1.993382,-0.42081 4.237692,-0.97071 5.573052,-2.50937 0.68179,-0.78559 0.83925,-2.76862 0.86789,-2.99743 0.0286,-0.22881 -0.3415,-0.97288 -0.48177,-1.08449 -0.14026,-0.11162 -1.81059,2.36795 -1.81059,2.36795 0,0 -1.30414,0.26876 -1.77396,-0.0916 -0.683391,-0.52417 -0.33483,-1.73121 -0.797509,-2.45764 -0.517007,-0.81173 -1.267225,-1.50743 -2.111875,-1.96869 -0.682927,-0.37295 -1.48624,-0.63447 -2.262172,-0.57609 -1.185026,0.0891 -2.314676,0.69981 -3.284326,1.38684 -0.334055,0.23669 -0.582501,0.57988 -0.825886,0.90909 -0.208827,0.28247 -0.420573,0.57509 -0.537974,0.90617 -0.131815,0.37173 -0.257916,0.78576 -0.171876,1.17067 0.08863,0.39648 0.673637,1.0157 0.673637,1.0157 l 0.351618,1.44786 0.554397,-1.6268 c 0,0 0.46995,-0.44621 0.632635,-0.72165 0.164114,-0.27786 0.329461,-0.91034 0.329461,-0.91034 l -0.893837,-0.11345 c 0,0 1.156589,-0.36074 1.609467,-0.0721 0.420342,0.26788 0.479152,0.89229 0.570211,1.38235 0.0724,0.38964 0.07118,0.80497 -0.02829,1.1886 -0.09766,0.37663 -0.25124,0.77572 -0.542769,1.0334 -0.207449,0.18337 -0.504828,0.24338 -0.777213,0.29302 -0.369911,0.0674 -1.128011,0 -1.128011,0 z"
             id="path19269"
             sodipodi:nodetypes="caaasscaaaaaaaacccaccaaaaacc" />
        </g>
      </g>
    </g>
  </g>
</svg>
